<svg width="32" height="40" viewBox="0 0 32 40" fill="none" xmlns="http://www.w3.org/2000/svg">
<path d="M16 37.7713C17.8385 37.7713 19.659 37.4093 21.3576 36.706C23.0561 36.0026 24.5995 34.9718 25.8995 33.6722C27.1995 32.3726 28.2307 30.8298 28.9343 29.1318C29.6379 27.4338 30 25.614 30 23.7761V15.9948C30.0002 12.5567 28.7344 9.23877 26.444 6.67395" stroke="black" stroke-width="3" stroke-linecap="round" stroke-linejoin="round"/>
<path d="M2 19.1018V23.7762C1.99906 26.5313 2.81159 29.2253 4.33575 31.5208C5.85991 33.8162 8.02789 35.6108 10.568 36.6798" stroke="black" stroke-width="3" stroke-linecap="round" stroke-linejoin="round"/>
<path d="M23 3.87497C19.7845 2.01918 15.9633 1.51626 12.3768 2.47686C8.79043 3.43747 5.7326 5.7829 3.87603 8.99722C3.11157 10.317 2.5722 11.7549 2.28003 13.2518" stroke="black" stroke-width="3" stroke-linecap="round" stroke-linejoin="round"/>
<path d="M14.5439 10.1168C15.5738 9.9031 16.6385 9.92317 17.6595 10.1756C18.6806 10.4279 19.6319 10.9062 20.4434 11.5751C21.2549 12.2439 21.9059 13.0864 22.3484 14.0402C22.7909 14.9941 23.0135 16.0351 22.9999 17.0864V21.5929" stroke="black" stroke-width="3" stroke-linecap="round" stroke-linejoin="round"/>
<path d="M21.2079 27.4709C20.2552 28.5317 19.0011 29.2764 17.6135 29.6052C16.2258 29.934 14.7708 29.8312 13.4432 29.3107C12.1155 28.7902 10.9786 27.8767 10.1845 26.6925C9.39046 25.5083 8.97715 24.11 8.99992 22.6845V17.0865C8.99459 16.1251 9.18513 15.1728 9.55992 14.2874" stroke="black" stroke-width="3" stroke-linecap="round" stroke-linejoin="round"/>
<path d="M16 17.3943V22.0687" stroke="black" stroke-width="3" stroke-linecap="round" stroke-linejoin="round"/>
</svg>
