<svg width="40" height="41" viewBox="0 0 40 41" fill="none" xmlns="http://www.w3.org/2000/svg">
<path d="M38.1818 15.078H29.4727L21.5091 0.907271C21.1636 0.302424 20.5818 0 20 0C19.4182 0 18.8364 0.302424 18.4909 0.928873L10.5273 15.078H1.81818C0.818182 15.078 0 16.0501 0 17.2381C0 17.4326 0.0181818 17.627 0.0727272 17.8214L4.69091 37.8462C5.10909 39.6607 6.50909 41 8.18182 41H31.8182C33.4909 41 34.8909 39.6607 35.3273 37.8462L39.9455 17.8214L40 17.2381C40 16.0501 39.1818 15.078 38.1818 15.078ZM20 6.00527L25.0909 15.078H14.9091L20 6.00527ZM31.8182 36.6797L8.2 36.7013L4.2 19.3983H35.8182L31.8182 36.6797ZM20 23.7187C18 23.7187 16.3636 25.6628 16.3636 28.039C16.3636 30.4152 18 32.3593 20 32.3593C22 32.3593 23.6364 30.4152 23.6364 28.039C23.6364 25.6628 22 23.7187 20 23.7187Z" fill="black"/>
</svg>
